<mxfile host="app.diagrams.net" modified="2023-02-16T11:34:14.312Z" agent="5.0 (Windows NT 10.0; Win64; x64) AppleWebKit/537.36 (KHTML, like Gecko) Chrome/110.0.0.0 Safari/537.36" etag="PPa43iDYQ7XBVw2a8KXz" version="20.8.20" type="github">
  <diagram id="C5RBs43oDa-KdzZeNtuy" name="Page-1">
    <mxGraphModel dx="1434" dy="800" grid="1" gridSize="10" guides="1" tooltips="1" connect="1" arrows="1" fold="1" page="1" pageScale="1" pageWidth="827" pageHeight="1169" math="0" shadow="0">
      <root>
        <mxCell id="WIyWlLk6GJQsqaUBKTNV-0" />
        <mxCell id="WIyWlLk6GJQsqaUBKTNV-1" parent="WIyWlLk6GJQsqaUBKTNV-0" />
        <mxCell id="vYYyGU_dvBcE0FvDVzeM-3" value="" style="edgeStyle=orthogonalEdgeStyle;rounded=0;orthogonalLoop=1;jettySize=auto;html=1;" edge="1" parent="WIyWlLk6GJQsqaUBKTNV-1" source="vYYyGU_dvBcE0FvDVzeM-1" target="vYYyGU_dvBcE0FvDVzeM-2">
          <mxGeometry relative="1" as="geometry" />
        </mxCell>
        <mxCell id="vYYyGU_dvBcE0FvDVzeM-1" value="Start" style="ellipse;whiteSpace=wrap;html=1;" vertex="1" parent="WIyWlLk6GJQsqaUBKTNV-1">
          <mxGeometry x="354" y="20" width="120" height="80" as="geometry" />
        </mxCell>
        <mxCell id="vYYyGU_dvBcE0FvDVzeM-5" value="" style="edgeStyle=orthogonalEdgeStyle;rounded=0;orthogonalLoop=1;jettySize=auto;html=1;" edge="1" parent="WIyWlLk6GJQsqaUBKTNV-1" source="vYYyGU_dvBcE0FvDVzeM-2" target="vYYyGU_dvBcE0FvDVzeM-4">
          <mxGeometry relative="1" as="geometry" />
        </mxCell>
        <mxCell id="vYYyGU_dvBcE0FvDVzeM-2" value="podaj tablice: a&lt;br&gt;podaj szukaną: z&lt;br&gt;i = 0" style="rounded=0;whiteSpace=wrap;html=1;" vertex="1" parent="WIyWlLk6GJQsqaUBKTNV-1">
          <mxGeometry x="354" y="140" width="120" height="60" as="geometry" />
        </mxCell>
        <mxCell id="vYYyGU_dvBcE0FvDVzeM-9" value="" style="edgeStyle=orthogonalEdgeStyle;rounded=0;orthogonalLoop=1;jettySize=auto;html=1;" edge="1" parent="WIyWlLk6GJQsqaUBKTNV-1" source="vYYyGU_dvBcE0FvDVzeM-4" target="vYYyGU_dvBcE0FvDVzeM-8">
          <mxGeometry relative="1" as="geometry" />
        </mxCell>
        <mxCell id="vYYyGU_dvBcE0FvDVzeM-4" value="i &amp;lt; a.długość" style="rhombus;whiteSpace=wrap;html=1;" vertex="1" parent="WIyWlLk6GJQsqaUBKTNV-1">
          <mxGeometry x="359" y="270" width="110" height="110" as="geometry" />
        </mxCell>
        <mxCell id="vYYyGU_dvBcE0FvDVzeM-12" value="" style="edgeStyle=orthogonalEdgeStyle;rounded=0;orthogonalLoop=1;jettySize=auto;html=1;" edge="1" parent="WIyWlLk6GJQsqaUBKTNV-1" source="vYYyGU_dvBcE0FvDVzeM-8" target="vYYyGU_dvBcE0FvDVzeM-11">
          <mxGeometry relative="1" as="geometry" />
        </mxCell>
        <mxCell id="vYYyGU_dvBcE0FvDVzeM-8" value="z == a[i]" style="rhombus;whiteSpace=wrap;html=1;" vertex="1" parent="WIyWlLk6GJQsqaUBKTNV-1">
          <mxGeometry x="520" y="270" width="110" height="110" as="geometry" />
        </mxCell>
        <mxCell id="vYYyGU_dvBcE0FvDVzeM-10" value="TAK" style="text;html=1;strokeColor=none;fillColor=none;align=center;verticalAlign=middle;whiteSpace=wrap;rounded=0;" vertex="1" parent="WIyWlLk6GJQsqaUBKTNV-1">
          <mxGeometry x="460" y="300" width="60" height="30" as="geometry" />
        </mxCell>
        <mxCell id="vYYyGU_dvBcE0FvDVzeM-11" value="Wyświetl&lt;br&gt;&quot;Podana wartość znajduje się w tablicy&quot;" style="rounded=0;whiteSpace=wrap;html=1;" vertex="1" parent="WIyWlLk6GJQsqaUBKTNV-1">
          <mxGeometry x="500" y="420" width="150" height="60" as="geometry" />
        </mxCell>
        <mxCell id="vYYyGU_dvBcE0FvDVzeM-13" value="Koniec" style="ellipse;whiteSpace=wrap;html=1;" vertex="1" parent="WIyWlLk6GJQsqaUBKTNV-1">
          <mxGeometry x="354" y="530" width="120" height="80" as="geometry" />
        </mxCell>
        <mxCell id="vYYyGU_dvBcE0FvDVzeM-14" value="" style="endArrow=classic;html=1;rounded=0;exitX=0.5;exitY=1;exitDx=0;exitDy=0;entryX=0.5;entryY=0;entryDx=0;entryDy=0;" edge="1" parent="WIyWlLk6GJQsqaUBKTNV-1" source="vYYyGU_dvBcE0FvDVzeM-4" target="vYYyGU_dvBcE0FvDVzeM-13">
          <mxGeometry width="50" height="50" relative="1" as="geometry">
            <mxPoint x="390" y="410" as="sourcePoint" />
            <mxPoint x="440" y="360" as="targetPoint" />
          </mxGeometry>
        </mxCell>
        <mxCell id="vYYyGU_dvBcE0FvDVzeM-15" value="" style="endArrow=classic;html=1;rounded=0;exitX=0.5;exitY=1;exitDx=0;exitDy=0;" edge="1" parent="WIyWlLk6GJQsqaUBKTNV-1" source="vYYyGU_dvBcE0FvDVzeM-11">
          <mxGeometry width="50" height="50" relative="1" as="geometry">
            <mxPoint x="569" y="480" as="sourcePoint" />
            <mxPoint x="414" y="500" as="targetPoint" />
            <Array as="points">
              <mxPoint x="575" y="500" />
            </Array>
          </mxGeometry>
        </mxCell>
        <mxCell id="vYYyGU_dvBcE0FvDVzeM-16" value="TAK" style="text;html=1;strokeColor=none;fillColor=none;align=center;verticalAlign=middle;whiteSpace=wrap;rounded=0;" vertex="1" parent="WIyWlLk6GJQsqaUBKTNV-1">
          <mxGeometry x="530" y="380" width="60" height="30" as="geometry" />
        </mxCell>
        <mxCell id="vYYyGU_dvBcE0FvDVzeM-17" value="i++" style="rounded=0;whiteSpace=wrap;html=1;" vertex="1" parent="WIyWlLk6GJQsqaUBKTNV-1">
          <mxGeometry x="460" y="230" width="40" height="20" as="geometry" />
        </mxCell>
        <mxCell id="vYYyGU_dvBcE0FvDVzeM-18" value="" style="endArrow=classic;html=1;rounded=0;exitX=0;exitY=0.5;exitDx=0;exitDy=0;" edge="1" parent="WIyWlLk6GJQsqaUBKTNV-1" source="vYYyGU_dvBcE0FvDVzeM-17">
          <mxGeometry width="50" height="50" relative="1" as="geometry">
            <mxPoint x="390" y="310" as="sourcePoint" />
            <mxPoint x="410" y="240" as="targetPoint" />
          </mxGeometry>
        </mxCell>
        <mxCell id="vYYyGU_dvBcE0FvDVzeM-19" value="" style="endArrow=classic;html=1;rounded=0;exitX=0.5;exitY=0;exitDx=0;exitDy=0;entryX=1;entryY=0.5;entryDx=0;entryDy=0;" edge="1" parent="WIyWlLk6GJQsqaUBKTNV-1" source="vYYyGU_dvBcE0FvDVzeM-8" target="vYYyGU_dvBcE0FvDVzeM-17">
          <mxGeometry width="50" height="50" relative="1" as="geometry">
            <mxPoint x="390" y="310" as="sourcePoint" />
            <mxPoint x="440" y="260" as="targetPoint" />
            <Array as="points">
              <mxPoint x="575" y="240" />
            </Array>
          </mxGeometry>
        </mxCell>
        <mxCell id="vYYyGU_dvBcE0FvDVzeM-20" value="NIE" style="text;html=1;strokeColor=none;fillColor=none;align=center;verticalAlign=middle;whiteSpace=wrap;rounded=0;" vertex="1" parent="WIyWlLk6GJQsqaUBKTNV-1">
          <mxGeometry x="530" y="240" width="60" height="30" as="geometry" />
        </mxCell>
        <mxCell id="vYYyGU_dvBcE0FvDVzeM-21" value="NIE" style="text;html=1;strokeColor=none;fillColor=none;align=center;verticalAlign=middle;whiteSpace=wrap;rounded=0;" vertex="1" parent="WIyWlLk6GJQsqaUBKTNV-1">
          <mxGeometry x="370" y="380" width="60" height="30" as="geometry" />
        </mxCell>
      </root>
    </mxGraphModel>
  </diagram>
</mxfile>
